<svg width="62" height="62" viewBox="0 0 62 62" fill="none" xmlns="http://www.w3.org/2000/svg">
<path d="M29 58.9937L31.5 59V36.7778H40.25C40.5815 36.7778 40.8995 36.6476 41.1339 36.4157C41.3683 36.1839 41.5 35.8695 41.5 35.5417C41.5 35.2138 41.3683 34.8994 41.1339 34.6676C40.8995 34.4358 40.5815 34.3056 40.25 34.3056H31.5V25.6528C31.5 24.0136 32.1585 22.4415 33.3306 21.2825C34.5027 20.1234 36.0924 19.4722 37.75 19.4722H42.75C43.0815 19.4722 43.3995 19.342 43.6339 19.1102C43.8683 18.8784 44 18.5639 44 18.2361C44 17.9083 43.8683 17.5939 43.6339 17.362C43.3995 17.1302 43.0815 17 42.75 17H37.75C35.4294 17 33.2038 17.9116 31.5628 19.5343C29.9219 21.1571 29 23.3579 29 25.6528V34.3056H20.25C19.9185 34.3056 19.6005 34.4358 19.3661 34.6676C19.1317 34.8994 19 35.2138 19 35.5417C19 35.8695 19.1317 36.1839 19.3661 36.4157C19.6005 36.6476 19.9185 36.7778 20.25 36.7778H29V58.9937Z" fill="white"/>
</svg>
