<svg width="57" height="57" viewBox="0 0 57 57" fill="none" xmlns="http://www.w3.org/2000/svg">
<path d="M28.5 21.1094C27.0383 21.1094 25.6094 21.5428 24.394 22.3549C23.1786 23.167 22.2313 24.3213 21.672 25.6717C21.1126 27.0222 20.9662 28.5082 21.2514 29.9418C21.5366 31.3755 22.2404 32.6924 23.274 33.726C24.3076 34.7596 25.6245 35.4634 27.0582 35.7486C28.4918 36.0338 29.9778 35.8874 31.3283 35.328C32.6787 34.7687 33.833 33.8214 34.6451 32.606C35.4572 31.3906 35.8906 29.9617 35.8906 28.5C35.8884 26.5406 35.109 24.662 33.7235 23.2765C32.338 21.891 30.4594 21.1116 28.5 21.1094ZM28.5 34.5469C27.304 34.5469 26.1349 34.1922 25.1405 33.5278C24.1461 32.8634 23.3711 31.919 22.9134 30.814C22.4557 29.7091 22.336 28.4933 22.5693 27.3203C22.8026 26.1473 23.3785 25.0699 24.2242 24.2242C25.0699 23.3785 26.1473 22.8026 27.3203 22.5693C28.4933 22.336 29.7091 22.4557 30.814 22.9134C31.919 23.3711 32.8634 24.1461 33.5278 25.1405C34.1922 26.1349 34.5469 27.304 34.5469 28.5C34.5469 30.1037 33.9098 31.6418 32.7758 32.7758C31.6418 33.9098 30.1037 34.5469 28.5 34.5469ZM36.5625 11.7031H20.4375C18.1218 11.7058 15.9017 12.6269 14.2643 14.2643C12.6269 15.9017 11.7058 18.1218 11.7031 20.4375V36.5625C11.7058 38.8782 12.6269 41.0983 14.2643 42.7357C15.9017 44.3731 18.1218 45.2942 20.4375 45.2969H36.5625C38.8782 45.2942 41.0983 44.3731 42.7357 42.7357C44.3731 41.0983 45.2942 38.8782 45.2969 36.5625V20.4375C45.2942 18.1218 44.3731 15.9017 42.7357 14.2643C41.0983 12.6269 38.8782 11.7058 36.5625 11.7031ZM43.9531 36.5625C43.9509 38.5219 43.1715 40.4005 41.786 41.786C40.4005 43.1715 38.5219 43.9509 36.5625 43.9531H20.4375C18.4781 43.9509 16.5995 43.1715 15.214 41.786C13.8285 40.4005 13.0491 38.5219 13.0469 36.5625V20.4375C13.0491 18.4781 13.8285 16.5995 15.214 15.214C16.5995 13.8285 18.4781 13.0491 20.4375 13.0469H36.5625C38.5219 13.0491 40.4005 13.8285 41.786 15.214C43.1715 16.5995 43.9509 18.4781 43.9531 20.4375V36.5625ZM38.5781 19.7656C38.5781 20.0314 38.4993 20.2912 38.3517 20.5122C38.204 20.7332 37.9941 20.9054 37.7486 21.0071C37.5031 21.1088 37.2329 21.1354 36.9722 21.0836C36.7116 21.0317 36.4721 20.9037 36.2842 20.7158C36.0963 20.5279 35.9683 20.2884 35.9164 20.0278C35.8646 19.7671 35.8912 19.4969 35.9929 19.2514C36.0946 19.0059 36.2668 18.796 36.4878 18.6483C36.7088 18.5007 36.9686 18.4219 37.2344 18.4219C37.5908 18.4219 37.9325 18.5634 38.1846 18.8155C38.4366 19.0675 38.5781 19.4092 38.5781 19.7656Z" fill="white"/>
<circle cx="28.5" cy="28.5" r="28" stroke="white"/>
</svg>
